<?xml version="1.0" encoding="UTF-8" standalone="no"?>
<!-- Created with Inkscape (http://www.inkscape.org/) -->

<svg
   xmlns:dc="http://purl.org/dc/elements/1.1/"
   xmlns:cc="http://creativecommons.org/ns#"
   xmlns:rdf="http://www.w3.org/1999/02/22-rdf-syntax-ns#"
   xmlns:svg="http://www.w3.org/2000/svg"
   xmlns="http://www.w3.org/2000/svg"
   xmlns:sodipodi="http://sodipodi.sourceforge.net/DTD/sodipodi-0.dtd"
   xmlns:inkscape="http://www.inkscape.org/namespaces/inkscape"
   width="48pt"
   height="48pt"
   viewBox="0 0 16.933334 16.933333"
   version="1.1"
   id="svg979"
   inkscape:version="0.92.4 (5da689c313, 2019-01-14)"
   sodipodi:docname="19 - Office.svg"
   inkscape:export-filename="E:\TR Design Studio Creative\Project Design\TR Creative Design\Icon Design\Project Hiring\Icon Icons\003 - Business And Finance\Line\Export\19 - Office.png"
   inkscape:export-xdpi="768"
   inkscape:export-ydpi="768">
  <defs
     id="defs973" />
  <sodipodi:namedview
     id="base"
     pagecolor="#ffffff"
     bordercolor="#666666"
     borderopacity="1.0"
     inkscape:pageopacity="0.0"
     inkscape:pageshadow="2"
     inkscape:zoom="8.546875"
     inkscape:cx="32"
     inkscape:cy="32"
     inkscape:document-units="pt"
     inkscape:current-layer="layer1"
     showgrid="false"
     units="pt"
     inkscape:window-width="1366"
     inkscape:window-height="716"
     inkscape:window-x="-8"
     inkscape:window-y="-8"
     inkscape:window-maximized="1"
     inkscape:snap-bbox="true"
     inkscape:bbox-nodes="true"
     inkscape:snap-nodes="false"
     showguides="false">
    <inkscape:grid
       type="xygrid"
       id="grid1526" />
    <sodipodi:guide
       position="0.97013909,15.963209"
       orientation="56.666615,0"
       id="guide1528"
       inkscape:locked="false" />
    <sodipodi:guide
       position="0.97013909,0.97016731"
       orientation="0,56.666667"
       id="guide1530"
       inkscape:locked="false" />
    <sodipodi:guide
       position="15.963195,0.97016731"
       orientation="-56.666615,0"
       id="guide1532"
       inkscape:locked="false" />
    <sodipodi:guide
       position="15.963195,15.963209"
       orientation="0,-56.666667"
       id="guide1534"
       inkscape:locked="false" />
  </sodipodi:namedview>
  <metadata
     id="metadata976">
    <rdf:RDF>
      <cc:Work
         rdf:about="">
        <dc:format>image/svg+xml</dc:format>
        <dc:type
           rdf:resource="http://purl.org/dc/dcmitype/StillImage" />
        <dc:title></dc:title>
      </cc:Work>
    </rdf:RDF>
  </metadata>
  <g
     inkscape:label="Layer 1"
     inkscape:groupmode="layer"
     id="layer1"
     transform="translate(0,-280.06668)">
    <path
       style="color:#000000;font-style:normal;font-variant:normal;font-weight:normal;font-stretch:normal;font-size:medium;line-height:normal;font-family:sans-serif;font-variant-ligatures:normal;font-variant-position:normal;font-variant-caps:normal;font-variant-numeric:normal;font-variant-alternates:normal;font-feature-settings:normal;text-indent:0;text-align:start;text-decoration:none;text-decoration-line:none;text-decoration-style:solid;text-decoration-color:#000000;letter-spacing:normal;word-spacing:normal;text-transform:none;writing-mode:lr-tb;direction:ltr;text-orientation:mixed;dominant-baseline:auto;baseline-shift:baseline;text-anchor:start;white-space:normal;shape-padding:0;clip-rule:nonzero;display:inline;overflow:visible;visibility:visible;opacity:1;isolation:auto;mix-blend-mode:normal;color-interpolation:sRGB;color-interpolation-filters:linearRGB;solid-color:#000000;solid-opacity:1;vector-effect:none;fill:#000000;fill-opacity:1;fill-rule:nonzero;stroke:none;stroke-width:0.529167;stroke-linecap:round;stroke-linejoin:round;stroke-miterlimit:1.5;stroke-dasharray:none;stroke-dashoffset:0;stroke-opacity:1;paint-order:markers fill stroke;color-rendering:auto;image-rendering:auto;shape-rendering:auto;text-rendering:auto;enable-background:accumulate"
       d="m 10.105112,281.03683 c -0.180986,-6.6e-4 -0.3278704,0.14618 -0.3271696,0.32717 v 0.97642 H 8.8008916 c -0.180041,-6.6e-4 -0.326531,0.14458 -0.3271664,0.32461 v 0.97959 H 3.9124604 c -0.011209,-6.4e-4 -0.021868,-6.4e-4 -0.033098,0 -0.16679,0.0166 -0.2943064,0.157 -0.2940684,0.32464 v 0.97895 H 3.2606695 c -0.011209,-6.5e-4 -0.02252,-6.5e-4 -0.033733,0 -0.1667966,0.0166 -0.2936775,0.157 -0.293433,0.32462 v 0.9796 H 2.6088786 c -0.011209,-6.5e-4 -0.02252,-6.5e-4 -0.033733,0 -0.1667932,0.0166 -0.2936708,0.157 -0.293433,0.32462 v 8.79981 H 1.9570879 c -0.011246,-6.4e-4 -0.022487,-6.4e-4 -0.033733,0 -0.4348749,0.0225 -0.4011415,0.67498 0.033733,0.65243 H 14.993543 c 0.434954,0 0.434954,-0.65243 0,-0.65243 h -0.327169 v -11.4076 c -6.53e-4,-0.17911 -0.145519,-0.324 -0.324621,-0.32464 V 281.364 c 6.51e-4,-0.18099 -0.146184,-0.32786 -0.32717,-0.32717 z m 0.324621,0.65179 h 3.259591 v 1.956 h -0.651792 v -0.97959 c -6.51e-4,-0.18003 -0.147125,-0.32532 -0.327166,-0.32461 h -2.280633 z m -1.3035815,1.30358 h 3.2595905 v 0.65242 H 9.1261515 Z m -4.8884312,1.30422 h 3.9113804 v 0.65179 H 4.2377203 Z m 4.5631713,0 h 5.2136914 v 11.08044 h -0.977051 v -1.95538 c 0,-0.35544 -0.296326,-0.65242 -0.65179,-0.65242 h -0.978958 v -2.04767 c 0.193481,-0.11405 0.327167,-0.32293 0.327167,-0.56013 v -0.65179 c 0,-0.35545 -0.296979,-0.65178 -0.652427,-0.65178 -0.760031,-2e-5 -1.5203315,0 -2.2806324,0 z m 0.9458625,0.65179 c -0.4243125,0.0299 -0.3940467,0.66246 0.031189,0.65178 h 3.2595909 c 0.44439,0.01 0.44439,-0.66176 0,-0.65178 H 9.7779424 c -0.010396,-6.5e-4 -0.020792,-6.5e-4 -0.031188,0 z m -6.1614601,0.65178 h 4.5638067 v 0.65244 H 3.585294 Z m 6.555461,0.65117 c -0.0119,-2.2e-4 -0.02379,2.1e-4 -0.03564,10e-4 H 9.7779422 c -0.010396,-6.5e-4 -0.020792,-6.5e-4 -0.031189,0 -0.3997922,0.0498 -0.3715272,0.6381 0.031189,0.64925 h 0.3271698 c 0.447598,0.0395 0.484883,-0.64093 0.03564,-0.65052 z m 1.465256,0 c -0.0119,-2.2e-4 -0.02379,2.1e-4 -0.03564,10e-4 h -0.32526 c -0.01101,-6.5e-4 -0.02206,-6.5e-4 -0.0331,0 -0.400523,0.0503 -0.370452,0.64005 0.0331,0.64925 h 0.32526 c 0.447599,0.0395 0.484884,-0.64093 0.03564,-0.65052 z m 1.467803,0 c -0.01207,-2.5e-4 -0.02422,1.9e-4 -0.03629,10e-4 h -0.327166 c -0.01035,-6.5e-4 -0.02079,-6.5e-4 -0.03119,0 -0.399792,0.0498 -0.371526,0.6381 0.03119,0.64925 h 0.327166 c 0.446885,0.0392 0.484751,-0.63978 0.03629,-0.65052 z m -10.1403109,0.65051 h 5.2155976 v 1.95602 c -0.7611482,0 -1.5222998,-2e-5 -2.2831777,0 -0.3554475,0 -0.6492422,0.29633 -0.6492422,0.65178 v 0.65179 c 0,0.23706 0.1320267,0.44599 0.3246211,0.56013 v 4.65547 H 2.9335031 Z m 0.9789573,0.65179 c -0.4349531,0 -0.4349531,0.65243 0,0.65243 h 3.257683 c 0.4349531,0 0.4349531,-0.65243 0,-0.65243 z m 5.865482,0 c -0.4349531,0 -0.4349531,0.65243 0,0.65243 h 3.2595896 c 0.434954,0 0.434954,-0.65243 0,-0.65243 z m -5.865482,1.30423 c -0.4443911,-0.01 -0.4443911,0.66176 0,0.65178 h 0.6524295 c 0.4443911,0.01 0.4443911,-0.66176 0,-0.65178 z m 8.7979056,0 c -0.444391,-0.01 -0.444391,0.66176 0,0.65178 h 0.327166 c 0.444392,0.01 0.444392,-0.66176 0,-0.65178 z m -6.844443,0.65178 c 1.7381177,-1e-5 3.4774867,-1e-5 5.215601,0 v 0.65179 c -1.7381176,0 -3.4774768,-2e-5 -5.215601,0 z m -1.9534626,0.65179 c -0.4349499,0 -0.4349499,0.65243 0,0.65243 h 0.6524295 c 0.4349498,0 0.4349498,-0.65243 0,-0.65243 z m 8.7979056,0 c -0.43495,0 -0.43495,0.65243 0,0.65243 h 0.327166 c 0.43495,0 0.43495,-0.65243 0,-0.65243 z m -6.5172732,0.65243 c 1.5201814,-1e-5 3.0410735,0 4.5612622,0 v 4.56317 H 9.7779424 v -0.97896 c 0,-0.35545 -0.296327,-0.65178 -0.6517909,-0.65178 H 7.8219343 c -0.3554639,0 -0.6517909,0.29633 -0.6517909,0.65178 v 0.97896 H 6.1930928 Z m 1.6651202,0.3259 c -0.2354204,0.002 -0.483896,10e-4 -0.7192577,10e-4 -0.3997922,0.0498 -0.3715273,0.6381 0.031189,0.64925 h 0.6517905 c 0.4468874,0.0392 0.4847532,-0.63977 0.036278,-0.65052 z m 1.9553726,0 c -0.2352445,0.002 -0.4834758,10e-4 -0.7186223,10e-4 -0.3997922,0.0498 -0.3715273,0.6381 0.031189,0.64925 h 0.6517909 c 0.4475978,0.0395 0.4848838,-0.64093 0.035643,-0.65052 z m -5.9342232,0.32589 c -0.4235402,0.0319 -0.3914917,0.66299 0.033098,0.6518 h 0.6524294 c 0.444391,0.01 0.444391,-0.66177 0,-0.6518 H 3.9124604 c -0.011012,-6.5e-4 -0.022063,-6.5e-4 -0.033098,0 z m 8.7998126,0 c -0.424313,0.0299 -0.394047,0.66248 0.03119,0.6518 h 0.327167 c 0.444391,0.01 0.444391,-0.66177 0,-0.6518 h -0.327167 c -0.01035,-6.5e-4 -0.02079,-6.5e-4 -0.03119,0 z m -5.5090316,0.97641 c -0.434953,0 -0.434953,0.65243 0,0.65243 h 0.6517909 c 0.4349531,0 0.4349531,-0.65243 0,-0.65243 z m 1.9560081,0 c -0.4349531,0 -0.4349531,0.65243 0,0.65243 h 0.6517909 c 0.4349526,0 0.4349526,-0.65243 0,-0.65243 z m -5.2467891,0.32717 c -0.4349499,0.022 -0.4018519,0.6745 0.033098,0.65242 h 0.6524294 c 0.4349498,0 0.4349498,-0.65242 0,-0.65242 H 3.9124604 c -0.011012,-6.5e-4 -0.022063,-6.5e-4 -0.033098,0 z m 7.5274216,0.65242 h 0.978958 v 1.95538 h -0.978958 z m -7.5274216,0.6518 c -0.4238922,0.0315 -0.3918111,0.66333 0.033098,0.65179 h 0.6524294 c 0.4440097,0.01 0.4440097,-0.66137 0,-0.65179 H 3.9124604 c -0.011012,-6.5e-4 -0.022063,-6.5e-4 -0.033098,0 z m 3.9425719,0.32462 h 1.3042172 v 0.97896 H 7.8219343 Z"
       id="path1760"
       inkscape:connector-curvature="0"
       sodipodi:nodetypes="cccccccccccccccccccccssccccccccccccccccccccccccccccssccssccccccccccccccccccccccccccccccccccccccccccssccccsssssssssscccccccccccccccssssssssssccccsssscccccccccccccccccccccccccccssssssssssccsscccccccccccccscccs" />
  </g>
</svg>
